<svg xmlns="http://www.w3.org/2000/svg" version="1.0" width="92.000000pt" height="111.000000pt" viewBox="0 0 92.000000 111.000000" preserveAspectRatio="xMidYMid meet">
<metadata fill="#3c3e41">
Created by FragRappy 2023
</metadata>
<g transform="translate(0.000000,111.000000) scale(0.100000,-0.100000)" fill="#3c3e41" stroke="none">
<path d="M534 1049 c-90 -12 -174 -48 -237 -103 -71 -63 -88 -90 -112 -185 -16 -62 -24 -75 -45 -83 -39 -13 -57 -84 -40 -152 17 -70 25 -83 69 -111 37 -23 39 -26 43 -89 3 -59 9 -73 53 -138 41 -60 60 -78 104 -99 68 -34 152 -52 193 -44 33 8 118 89 118 113 0 8 16 42 35 76 31 56 35 71 39 161 5 99 -3 135 -29 135 -7 0 -15 4 -17 9 -1 6 -15 12 -30 15 -24 4 -28 1 -27 -17 0 -25 17 -69 18 -49 1 6 7 12 15 12 8 0 16 5 18 12 3 7 10 8 17 4 11 -7 11 -10 0 -17 -11 -7 -11 -9 2 -9 14 0 16 -10 13 -62 -5 -96 -11 -134 -23 -157 -7 -12 -8 -21 -4 -21 4 0 3 -4 -3 -8 -6 -4 -16 -16 -22 -27 -10 -17 -11 -17 -12 -3 0 9 5 28 11 40 13 29 -3 78 -26 78 -8 0 -15 9 -15 19 0 29 -14 33 -37 11 -19 -17 -21 -18 -27 -2 -3 9 -9 23 -12 30 -4 8 0 10 9 6 8 -3 18 0 23 7 5 9 -2 11 -29 6 -37 -6 -52 8 -41 38 4 8 1 15 -5 15 -20 0 -24 -30 -7 -49 14 -15 14 -20 1 -37 -12 -16 -14 -17 -15 -2 0 12 -9 16 -37 15 -29 -2 -41 -8 -52 -29 -9 -15 -12 -30 -7 -35 4 -4 12 0 17 10 11 19 87 24 119 7 10 -5 32 -11 49 -12 45 -3 65 -30 63 -81 -4 -63 -10 -75 -43 -82 -16 -4 -27 -11 -23 -16 3 -5 10 -7 15 -4 5 4 9 -3 9 -15 0 -12 -4 -18 -10 -15 -5 3 -10 1 -10 -5 0 -6 -4 -9 -9 -6 -5 4 -11 1 -13 -5 -2 -7 -18 -13 -36 -15 -50 -6 -225 70 -206 89 3 3 -6 13 -21 23 -18 12 -22 19 -14 24 8 6 5 11 -10 19 -12 7 -19 17 -15 23 4 5 1 14 -5 18 -7 4 -12 27 -12 51 0 24 -7 63 -16 86 -9 24 -13 55 -10 71 3 15 2 34 -3 41 -5 9 -11 -4 -17 -38 -8 -51 -8 -51 -31 -35 -19 13 -22 21 -16 47 4 18 13 42 21 54 19 29 0 31 -20 3 -12 -18 -16 -18 -26 -6 -28 34 23 123 58 102 9 -6 21 40 21 81 0 13 4 22 9 19 5 -3 12 1 15 10 4 10 2 13 -6 8 -7 -5 -8 -3 -2 7 4 8 9 20 11 28 1 7 15 28 32 45 17 18 31 37 31 44 0 7 3 11 8 9 4 -1 18 8 32 21 13 12 30 22 39 22 8 0 11 3 8 7 -9 8 95 43 106 36 5 -3 12 -1 16 5 3 5 30 12 59 15 47 5 52 4 40 -10 -11 -14 -10 -15 11 -8 18 5 22 4 15 -6 -6 -12 -5 -12 9 0 9 7 17 9 17 4 0 -6 12 -8 26 -5 25 4 25 3 14 -18 -11 -21 -11 -22 14 -18 30 6 57 -19 61 -56 2 -19 -1 -23 -16 -19 -10 3 -19 10 -19 15 0 5 4 7 9 3 5 -3 13 0 17 7 4 7 4 10 -1 6 -4 -4 -15 -2 -23 5 -13 9 -14 9 -8 0 5 -9 1 -13 -13 -13 -11 0 -23 5 -26 10 -4 6 -10 8 -15 5 -9 -5 23 -45 35 -45 3 0 16 -10 29 -22 26 -26 45 -75 47 -122 1 -19 5 -10 9 24 4 30 11 64 16 74 6 15 4 17 -7 11 -12 -8 -12 -6 0 8 12 15 11 25 -3 72 -11 33 -25 56 -36 60 -10 3 -30 17 -44 30 -15 14 -39 27 -54 30 -15 3 -40 9 -57 13 -16 4 -53 5 -81 1z" fill="#3c3e41"/>
<path d="M768 687 c-5 -45 8 -73 17 -36 3 13 2 36 -3 49 -9 23 -9 23 -14 -13z" fill="#3c3e41"/>
<path d="M402 677 c-8 -10 -3 -12 27 -9 27 3 52 -5 94 -28 47 -26 58 -29 63 -16 9 24 -3 34 -58 51 -63 18 -112 19 -126 2z" fill="#3c3e41"/>
<path d="M430 618 c0 -4 -5 -7 -11 -5 -6 1 -14 -4 -16 -11 -5 -14 18 -12 29 3 4 5 10 2 14 -8 3 -9 13 -17 21 -17 8 0 11 5 8 10 -3 6 1 10 10 10 8 0 18 -7 21 -15 4 -9 15 -20 25 -26 15 -8 18 -6 13 8 -5 17 -5 17 9 1 15 -20 27 -14 27 13 0 18 -15 20 -38 6 -7 -5 -19 -2 -28 7 -14 15 -28 20 -46 17 -5 0 -8 3 -8 7 0 5 -7 9 -15 9 -8 0 -15 -4 -15 -9z" fill="#3c3e41"/>
<path d="M675 599 c-9 -13 12 -29 37 -29 28 0 48 -12 48 -28 0 -12 3 -13 11 -5 15 15 7 56 -11 59 -65 13 -79 14 -85 3z" fill="#3c3e41"/>
<path d="M594 525 c2 -22 5 -53 5 -68 1 -16 5 -26 10 -23 4 3 4 31 -1 63 -10 66 -21 87 -14 28z" fill="#3c3e41"/>
<path d="M490 248 c0 -5 7 -11 15 -14 12 -5 13 -10 4 -20 -9 -11 -7 -14 13 -14 13 0 30 -6 37 -12 11 -10 13 -10 7 0 -6 11 4 16 26 14 3 -1 8 4 11 11 3 9 -15 18 -54 28 -32 9 -59 12 -59 7z" fill="#3c3e41"/>
</g>
</svg>