<svg version="1.0" xmlns="http://www.w3.org/2000/svg"
 width="1280.000000pt" height="661.000000pt" viewBox="0 0 1280.000000 661.000000"
 preserveAspectRatio="xMidYMid meet">
<metadata>
Created by FragRappy 2023
</metadata>
<g transform="translate(0.000000,661.000000) scale(0.100000,-0.100000)"
fill="#3c3e41" stroke="none">
<path d="M12535 6600 c-128 -7 -132 -8 -243 -56 -70 -31 -145 -73 -195 -111
l-82 -61 -176 -40 c-275 -64 -498 -174 -715 -353 l-110 -92 -257 -87 c-465
-160 -1300 -507 -1652 -687 l-39 -21 57 -18 c31 -10 57 -21 57 -24 0 -11 -45
-28 -95 -36 -46 -6 -127 -36 -169 -60 -17 -10 -18 -15 -7 -42 7 -17 10 -35 7
-40 -14 -24 -160 -72 -272 -91 -201 -35 -290 -30 -522 28 -108 27 -262 63
-342 80 -80 16 -257 54 -395 84 -137 31 -324 69 -415 86 -91 17 -216 46 -278
65 -155 48 -270 59 -442 42 -164 -17 -186 -24 -420 -136 -190 -90 -334 -143
-570 -205 -250 -67 -341 -131 -467 -325 -34 -52 -70 -106 -81 -119 l-19 -25
-254 0 c-203 -1 -276 3 -364 17 -154 26 -152 24 -115 97 17 33 30 62 30 65 0
3 -30 19 -66 35 -66 30 -127 43 -264 55 -41 4 -129 24 -195 45 -66 21 -166 48
-222 61 -99 22 -116 32 -92 56 7 7 7 13 1 17 -6 3 -116 44 -246 90 -331 119
-1022 411 -1342 567 -288 140 -355 169 -644 274 -177 64 -194 69 -385 95 -182
25 -206 30 -272 63 -39 20 -113 68 -165 107 l-93 71 -3 -2332 c-1 -1283 1
-2336 5 -2340 5 -3 58 -26 118 -49 61 -23 198 -81 305 -127 107 -47 319 -136
470 -198 151 -62 367 -153 480 -202 l205 -89 186 191 c154 157 197 208 251
295 97 157 173 305 203 397 15 46 30 83 33 83 35 -1 251 -67 342 -104 79 -32
145 -51 211 -61 117 -18 128 -22 235 -85 47 -28 94 -50 105 -50 55 0 221 35
226 47 3 8 -6 56 -21 108 -14 52 -26 102 -26 110 0 17 56 45 90 45 19 0 20 -6
20 -97 0 -122 22 -204 65 -247 19 -18 66 -44 116 -63 143 -54 156 -56 256 -50
l93 5 0 -43 c0 -61 19 -195 32 -228 26 -66 180 -163 314 -197 98 -25 140 -25
188 1 43 23 56 16 56 -32 0 -39 44 -116 109 -196 69 -82 102 -98 284 -139 60
-13 130 -35 156 -50 74 -40 159 -111 194 -161 65 -95 84 -111 145 -124 85 -18
217 -16 292 4 36 10 104 35 152 56 l86 38 49 -28 c84 -50 324 -152 369 -157
58 -6 200 16 244 38 57 29 168 161 186 221 12 41 18 49 32 43 9 -3 76 -25 147
-47 111 -35 143 -41 220 -42 106 0 136 13 239 100 74 63 109 116 129 195 17
65 35 77 135 91 177 23 243 41 303 81 104 69 185 187 214 310 34 143 11 392
-45 481 -17 27 -29 51 -28 52 2 2 53 -33 113 -77 190 -138 383 -217 501 -205
122 12 216 106 330 327 36 71 39 80 38 160 -1 72 -7 102 -43 202 -22 65 -41
122 -41 127 0 5 19 20 43 33 67 38 244 184 351 291 54 54 101 96 104 92 3 -3
9 -67 14 -142 l8 -136 -46 -174 c-25 -96 -44 -176 -42 -178 2 -2 54 -13 117
-24 126 -22 126 -22 225 39 88 53 123 66 226 80 72 11 168 42 328 107 6 3 12
-2 12 -10 0 -9 54 -122 119 -252 166 -328 235 -415 387 -487 65 -31 75 -33
170 -32 l100 1 230 118 c425 219 1207 676 1320 772 l64 54 0 2200 0 2199 -67
-2 c-38 -1 -126 -5 -198 -8z"/>
</g>
</svg>
