<svg xmlns="http://www.w3.org/2000/svg" version="1.0" width="299.000000pt" height="238.000000pt" viewBox="0 0 299.000000 238.000000" preserveAspectRatio="xMidYMid meet">
<metadata fill="#3c3e41">
Created by FragRappy 2023
</metadata>
<g transform="translate(0.000000,238.000000) scale(0.050000,-0.050000)" fill="#3c3e41" stroke="none">
<path d="M2676 4599 c-43 -25 -141 -238 -127 -275 6 -15 -21 -80 -61 -144 -39 -64 -76 -152 -82 -197 -7 -53 -30 -99 -68 -135 -67 -64 -70 -81 -24 -132 25 -28 28 -42 10 -60 -13 -13 -24 -70 -24 -126 0 -59 -12 -119 -29 -141 -43 -57 -37 -134 15 -211 49 -72 67 -76 244 -57 71 8 81 4 86 -36 8 -53 -27 -69 -216 -105 -71 -13 -139 -31 -150 -39 -23 -18 -234 -47 -315 -43 -35 2 -63 -12 -79 -38 -14 -22 -31 -40 -38 -40 -37 0 -268 -158 -418 -286 -93 -79 -246 -204 -340 -278 -332 -263 -381 -307 -460 -415 -157 -213 -153 -302 32 -663 251 -492 470 -736 689 -770 98 -15 303 -202 343 -313 29 -80 105 -75 156 10 52 85 149 374 143 425 -4 30 0 33 14 13 28 -42 129 -11 156 48 19 40 18 49 -5 49 -48 0 -57 4 -84 42 -30 43 8 125 50 109 14 -5 30 -1 37 10 6 10 -12 19 -41 19 -40 0 -51 9 -46 35 4 21 25 34 52 33 24 0 44 6 44 15 0 10 -11 17 -25 17 -17 1 -15 7 5 20 22 14 23 19 4 20 -67 0 -91 60 -45 109 41 44 29 90 -17 62 -23 -14 -107 125 -91 151 6 10 -2 18 -18 18 -31 0 -60 299 -46 480 24 299 38 380 71 380 17 0 66 6 107 13 77 13 119 -72 50 -100 -14 -5 11 -4 55 2 44 6 91 19 104 29 13 11 36 12 50 4 14 -9 53 -18 86 -20 336 -18 472 -6 800 74 88 22 192 47 230 56 39 10 59 18 45 20 -14 1 -25 24 -25 51 0 48 3 49 118 38 l117 -12 -10 53 c-6 31 -1 52 13 52 28 0 28 -71 0 -124 -16 -30 -16 -37 0 -27 38 23 36 -1297 -2 -1343 -11 -14 -14 -59 -7 -102 l13 -78 -136 -25 c-75 -13 -163 -30 -196 -36 -125 -23 -224 -179 -120 -187 34 -3 48 -7 90 -23 43 -17 213 -55 243 -55 14 0 6 14 -19 31 -46 33 -104 149 -103 206 0 18 20 -8 45 -58 86 -176 111 -195 262 -201 97 -3 140 3 152 22 14 23 22 23 48 1 22 -17 32 -18 32 -3 0 35 48 26 73 -14 19 -31 16 -37 -20 -35 -23 0 -44 -10 -45 -24 -2 -14 -4 -32 -6 -40 -2 -8 -21 8 -44 35 l-40 50 9 -80 c24 -226 54 -278 167 -298 129 -22 166 -1 289 163 142 189 233 261 318 250 70 -8 125 17 349 161 121 77 354 427 475 714 140 333 84 441 -494 960 -129 116 -310 279 -403 363 -268 244 -517 352 -814 353 -141 1 -190 10 -246 43 -39 22 -104 41 -146 41 -156 0 -163 45 -45 306 139 308 187 638 105 720 -12 12 -22 48 -22 81 0 105 -203 262 -446 345 -76 26 -149 55 -162 65 -37 29 -160 43 -196 22z m245 -240 c62 -33 51 -129 -23 -195 l-63 -56 65 -65 c55 -55 63 -75 54 -132 -6 -36 -2 -75 9 -86 13 -13 10 -29 -7 -47 -14 -16 -39 -53 -54 -83 -16 -30 -35 -55 -44 -55 -8 0 -12 -22 -9 -49 3 -30 -3 -45 -15 -37 -12 7 -15 -8 -7 -41 11 -41 6 -53 -18 -53 -17 0 -26 8 -20 19 6 10 2 24 -11 32 -16 10 -14 19 5 31 18 11 13 15 -18 13 -24 -2 -48 -15 -54 -29 -5 -14 -29 -26 -52 -26 -25 0 -39 -10 -34 -25 5 -14 22 -23 39 -20 28 5 83 -81 64 -100 -14 -14 -128 97 -128 124 0 13 -8 18 -19 12 -18 -11 -25 6 -50 114 -6 30 -25 55 -41 55 -39 0 -38 18 3 64 32 35 31 36 -30 24 -41 -9 -63 -5 -63 10 0 12 13 22 30 22 16 0 29 7 28 15 -10 61 61 95 92 45 24 -39 92 27 82 80 -6 28 -6 39 1 25 6 -14 20 -19 32 -12 12 7 15 4 8 -8 -8 -13 2 -17 27 -11 51 13 50 21 -5 70 -36 31 -31 30 22 -5 66 -44 67 -44 45 -4 -31 58 -124 128 -155 117 -49 -19 -47 26 3 80 31 33 47 68 39 87 -22 58 -19 68 31 94 60 32 188 35 241 6z m143 -224 c30 -24 62 -155 38 -155 -7 0 -32 30 -57 66 -67 98 -56 148 19 89z m219 -228 c95 -86 8 -278 -148 -327 -97 -31 -123 -58 -60 -62 46 -3 47 -3 110 12 53 14 53 13 42 -63 -7 -42 -12 -97 -12 -122 0 -25 -7 -40 -16 -35 -22 14 -42 -20 -50 -86 -4 -30 -13 -102 -21 -161 l-13 -107 65 34 c94 49 205 57 181 13 -111 -209 -741 -272 -741 -75 0 33 119 65 137 38 24 -35 80 -44 103 -16 18 22 7 38 -58 79 -84 53 -104 129 -40 147 15 4 42 12 58 19 43 17 56 20 95 23 85 7 92 28 94 292 1 219 6 255 36 272 19 11 35 38 35 59 0 25 24 49 65 67 86 38 95 38 138 -1z m-776 -390 c6 -24 6 -51 1 -60 -18 -29 -108 -19 -108 11 0 16 -5 43 -12 60 -10 25 1 32 48 32 44 0 62 -11 71 -43z m1209 -621 c97 -7 100 -19 56 -226 -24 -115 -28 -120 -81 -113 -36 4 -51 -1 -42 -15 7 -12 35 -22 62 -22 33 0 44 -9 37 -29 -9 -21 -24 -24 -59 -11 -26 10 -74 15 -108 11 -80 -11 -83 -3 -49 160 47 222 70 298 85 273 8 -12 52 -25 99 -28z m-338 -119 c28 -80 28 -77 -13 -77 -26 -1 -28 -5 -10 -17 30 -19 45 -74 57 -213 6 -71 3 -91 -11 -70 -20 29 -23 27 -29 -25 -2 -14 -19 -22 -39 -19 -23 4 -40 -9 -48 -37 l-11 -44 -27 48 c-24 41 -27 42 -22 7 3 -23 -5 -38 -20 -35 -14 3 -25 -2 -25 -11 0 -26 -88 -24 -104 2 -11 17 -15 14 -16 -9 0 -18 -13 -38 -30 -44 -16 -7 -30 -3 -30 8 0 13 -14 14 -35 3 -41 -20 -66 -19 -99 2 -14 9 -32 0 -44 -21 -18 -32 -22 -33 -53 -2 -29 29 -39 29 -93 2 -62 -31 -296 -2 -296 37 0 9 -22 8 -50 -2 -44 -17 -51 -13 -62 32 -10 38 -18 45 -30 25 -10 -16 -18 -18 -18 -5 0 12 22 39 50 60 57 43 66 73 17 54 -22 -8 -29 -5 -20 10 8 12 19 70 25 128 12 109 70 261 84 219 11 -35 79 -27 102 12 17 30 26 31 63 9 36 -22 41 -22 28 0 -8 14 5 5 30 -20 25 -26 58 -42 74 -36 16 7 24 4 18 -6 -6 -10 10 -23 34 -30 37 -10 40 -15 15 -31 -22 -14 -13 -17 30 -12 33 5 62 10 65 12 9 7 33 11 170 27 75 8 131 23 125 32 -5 9 8 12 30 6 22 -6 40 -21 41 -33 0 -13 12 -7 27 12 17 23 41 31 64 23 30 -9 32 -7 9 9 -24 16 -24 25 -2 51 38 46 54 40 79 -31z m-1198 -142 l0 -185 -82 -6 c-45 -3 -92 -7 -105 -10 -16 -3 -25 54 -29 178 l-5 181 58 -8 c33 -5 76 1 96 12 63 37 67 28 67 -162z m1899 94 c15 9 28 -1 35 -28 7 -27 22 -39 39 -32 16 5 34 -3 40 -19 6 -16 19 -25 29 -19 10 7 14 19 8 29 -5 9 11 6 37 -6 38 -18 46 -34 39 -83 -8 -60 -6 -61 73 -58 59 2 81 -5 81 -26 0 -16 -9 -24 -20 -17 -11 7 -20 8 -20 3 0 -17 125 -73 163 -73 20 0 37 -9 37 -20 0 -11 14 -20 32 -20 20 0 28 -11 21 -30 -6 -16 -5 -27 3 -25 8 3 36 -15 62 -39 27 -25 56 -40 66 -33 10 6 17 -1 15 -16 -8 -58 3 -74 42 -67 22 4 35 -1 28 -11 -6 -11 3 -25 21 -32 18 -7 28 -24 22 -39 -6 -15 -4 -27 4 -25 46 7 64 -9 66 -58 0 -30 6 -44 11 -30 6 14 29 25 51 25 26 0 37 -10 29 -28 -14 -38 49 -92 109 -92 133 -1 94 -65 -99 -162 -99 -49 -36 -47 74 2 104 48 163 51 163 10 0 -16 14 -30 30 -30 44 0 37 -35 -10 -50 -44 -14 -48 -26 -22 -68 10 -15 28 -21 40 -13 13 8 22 -3 22 -27 0 -68 -64 -86 -225 -64 -79 11 -147 17 -151 12 -10 -9 136 -50 181 -50 19 0 35 -8 35 -19 0 -19 106 -12 140 9 11 7 20 -6 20 -28 0 -22 -9 -45 -21 -52 -33 -21 -259 -23 -259 -3 0 10 -13 7 -28 -5 -22 -18 -31 -18 -38 2 -7 17 -11 14 -12 -9 -2 -29 12 -33 86 -24 138 16 190 -50 104 -133 -26 -25 -43 -58 -37 -73 5 -15 2 -25 -8 -23 -44 8 -66 -6 -92 -58 -27 -55 -27 -56 29 -52 31 2 56 -4 56 -13 0 -26 -71 -59 -126 -59 -58 0 -111 -50 -70 -66 17 -7 14 -12 -9 -15 -19 -2 -44 -6 -55 -9 -11 -3 -47 -6 -80 -7 -79 -4 -77 -46 5 -111 67 -53 63 -68 -8 -30 -32 17 -45 14 -65 -13 -32 -43 -84 -14 -146 80 -52 79 -32 137 33 96 48 -30 68 -32 52 -6 -12 18 63 52 99 45 11 -3 3 9 -18 25 -21 16 -46 25 -55 19 -9 -6 -17 4 -17 22 0 24 11 29 40 20 28 -9 37 -5 29 14 -5 16 16 42 52 63 38 23 58 48 51 65 -13 35 50 38 84 4 13 -13 29 -18 35 -11 7 6 -21 34 -60 61 -77 51 -58 87 38 75 34 -4 36 -1 11 29 -23 28 -23 36 0 50 19 12 14 19 -22 26 l-48 9 45 15 c43 14 44 17 10 41 -32 25 -31 26 13 15 32 -8 44 -5 35 9 -7 12 -40 28 -72 35 -40 9 -55 22 -48 41 6 16 0 29 -13 29 -19 0 -19 7 -3 27 13 15 16 34 8 43 -8 9 -5 11 7 4 12 -7 33 11 47 41 24 54 24 54 -17 17 -23 -21 -42 -31 -42 -22 0 29 80 85 175 120 213 81 200 112 -19 44 -52 -16 -99 -24 -105 -18 -6 6 -11 0 -11 -12 0 -82 -110 -128 -167 -69 -89 92 -133 150 -133 176 0 16 -18 40 -40 54 -22 13 -40 35 -40 47 0 13 -14 35 -31 49 -34 28 16 -127 54 -170 35 -39 16 -68 -43 -67 -33 1 -60 8 -60 16 0 8 -54 48 -120 88 -66 41 -120 79 -120 84 0 6 10 4 23 -4 14 -9 18 -5 9 9 -8 13 -26 23 -41 23 -26 0 -61 55 -54 85 2 8 -11 15 -27 15 -16 0 -31 -11 -32 -25 0 -14 -4 -42 -8 -63 -7 -34 74 -122 111 -122 6 0 25 -13 42 -30 16 -16 63 -48 103 -70 109 -58 99 -99 -21 -83 -135 18 -162 24 -176 38 -7 7 -27 7 -44 0 -21 -8 -27 -4 -17 12 8 12 4 23 -8 23 -12 0 -17 9 -11 19 7 10 -6 15 -28 11 -22 -4 -54 6 -71 23 -27 27 -39 21 -32 -18 5 -34 -17 -11 -46 47 -17 35 -26 72 -19 84 8 12 3 14 -12 5 -18 -11 -23 5 -21 62 2 42 2 82 0 87 -17 50 -16 100 2 100 12 0 17 14 11 30 -7 17 -3 30 8 30 27 0 24 55 -4 72 -16 10 -20 4 -11 -20 8 -20 6 -29 -6 -22 -11 7 -20 30 -20 51 0 22 -11 39 -25 39 -15 0 -17 6 -5 15 11 8 21 26 22 40 1 14 3 44 5 66 2 23 12 36 22 30 10 -7 15 6 11 28 -4 23 1 41 12 41 11 0 15 8 9 19 -6 10 -2 24 10 32 12 7 16 27 10 44 -10 25 -7 26 19 5 24 -20 30 -20 30 2 0 20 5 21 24 2 33 -33 56 -30 56 6 0 17 -10 30 -21 30 -12 0 -15 10 -8 22 10 16 18 15 29 -2 9 -14 26 -19 39 -11z m-2200 -368 c0 -47 -42 -126 -61 -116 -5 3 5 -6 21 -20 23 -20 23 -25 1 -25 -14 0 -21 -6 -14 -13 8 -7 4 -25 -8 -40 -13 -15 -17 -40 -11 -56 6 -16 2 -35 -8 -42 -11 -6 -14 -20 -8 -30 6 -11 3 -19 -8 -19 -11 0 -30 -30 -42 -66 -38 -115 -143 -198 -272 -216 -69 -9 -125 -29 -145 -52 -33 -37 -115 -41 -93 -4 17 26 -50 47 -74 23 -14 -14 -12 -34 6 -62 14 -23 20 -46 14 -53 -19 -19 -120 29 -107 51 12 18 -60 195 -89 219 -24 20 -17 140 8 140 14 0 49 23 79 50 30 28 61 50 70 50 9 0 33 22 53 49 45 60 171 98 154 46 -3 -8 5 -15 17 -15 14 0 17 19 9 52 -12 49 -9 52 43 41 31 -6 45 -7 31 -1 -14 6 -25 25 -25 42 0 27 5 27 34 3 23 -18 29 -19 19 -2 -10 16 -4 25 16 25 17 0 32 -16 32 -35 2 -30 4 -29 18 5 8 22 12 50 7 63 -5 13 2 30 16 38 16 10 19 7 8 -11 -11 -18 -8 -21 9 -11 13 9 20 32 15 52 -6 23 -1 33 16 26 14 -5 38 7 53 28 61 87 218 4 216 -114z m301 43 c0 -8 -49 -24 -110 -36 -102 -18 -166 10 -85 37 47 16 195 15 195 -1z m-200 -153 c0 -46 -32 -86 -52 -65 -16 15 14 114 34 114 10 0 18 -22 18 -49z m1920 -419 c0 -33 155 -172 193 -172 15 0 27 -8 27 -18 0 -10 14 -23 30 -29 25 -10 27 -5 11 26 -11 21 -31 41 -45 46 -15 5 -11 13 11 21 21 8 30 6 23 -6 -7 -11 2 -20 19 -20 17 0 31 -8 31 -18 0 -10 5 -32 11 -48 14 -35 -69 -119 -103 -106 -13 5 -29 -10 -35 -34 -17 -63 -16 -62 -48 -85 -17 -13 -29 -54 -29 -100 0 -44 -9 -90 -20 -104 -15 -17 -14 -25 2 -25 16 0 14 -21 -6 -68 -16 -38 -23 -74 -17 -80 6 -7 1 -12 -12 -12 -13 0 -24 9 -25 20 -3 24 -11 54 -19 75 -3 8 -7 24 -10 35 -2 11 -6 25 -8 30 -3 12 -22 392 -25 512 -1 46 5 93 12 105 8 13 3 24 -12 25 -20 1 -20 3 -1 11 14 6 20 19 14 29 -6 10 -2 18 10 18 11 0 21 -12 21 -28z m-3029 -11 c-14 -22 61 -49 89 -31 11 7 20 8 20 3 0 -5 5 -24 12 -41 8 -22 1 -32 -25 -33 -32 -2 -31 -4 7 -23 24 -12 49 -35 56 -52 10 -27 6 -27 -26 2 -20 19 -48 34 -61 34 -12 0 -23 8 -23 17 0 9 -36 28 -81 41 l-81 24 46 38 c49 41 86 53 67 21z m935 -102 c-6 -20 -16 -37 -23 -36 -7 1 -17 0 -23 -2 -82 -32 -98 -9 -35 50 52 50 95 44 81 -12z m-955 -30 c50 -17 107 -47 127 -65 20 -19 60 -51 89 -72 65 -46 69 -106 8 -118 -39 -7 -37 -9 10 -11 30 -2 55 -11 55 -21 0 -31 -58 -66 -84 -51 -14 8 -5 -5 20 -30 26 -25 42 -58 36 -74 -7 -16 -3 -24 8 -17 11 7 20 4 20 -6 0 -10 -47 -36 -104 -58 -95 -36 -100 -41 -51 -50 30 -6 50 -4 45 4 -18 29 112 40 140 13 36 -36 -83 -95 -163 -81 -110 19 -135 31 -105 50 21 13 17 17 -16 18 -52 0 -70 22 -47 58 11 19 20 20 30 4 8 -13 22 -18 32 -11 32 19 -27 64 -70 53 -23 -5 -34 -3 -26 6 8 9 7 26 -2 38 -50 64 -38 124 22 114 8 -1 15 7 15 18 0 11 -26 20 -58 20 -62 0 -132 60 -87 75 14 5 25 20 25 33 0 14 11 26 25 27 100 7 137 44 40 39 -103 -4 -135 10 -74 34 17 6 26 21 19 32 -35 57 7 67 121 29z m3850 -184 c7 -47 31 -105 55 -131 24 -26 44 -56 44 -68 0 -56 -244 -366 -288 -366 -33 0 -112 -85 -112 -120 0 -83 -372 -304 -408 -243 -4 7 19 81 51 163 51 131 80 227 184 590 21 74 37 87 203 174 221 116 256 116 271 1z m-3026 -23 c170 -134 337 -762 215 -809 -42 -16 -219 92 -227 138 -4 22 -87 118 -185 215 -185 184 -217 240 -178 314 13 24 18 64 12 90 -9 36 -1 49 43 66 54 19 182 58 208 62 7 1 58 -33 112 -76z m-448 -447 c-39 -63 -23 -93 31 -58 47 31 49 31 36 -3 -9 -23 -6 -31 8 -23 11 7 26 -6 32 -29 6 -23 23 -42 38 -42 44 0 33 -28 -27 -66 l-55 -36 105 13 c124 15 126 8 50 -130 -50 -89 -121 -145 -127 -99 -2 10 -4 29 -6 43 -2 14 17 45 42 69 25 24 46 50 46 57 0 13 -118 -8 -150 -28 -42 -25 -90 -22 -90 7 0 17 -9 30 -19 30 -11 0 -15 14 -8 30 6 17 36 30 69 30 32 0 58 10 58 21 0 13 -17 16 -40 9 -30 -9 -40 -3 -41 24 -2 32 -4 32 -18 -4 -16 -38 -17 -38 -32 -3 -11 28 -18 31 -31 10 -12 -18 -18 -8 -18 33 0 46 -5 53 -20 30 -13 -20 -19 -22 -20 -5 0 14 -7 24 -15 23 -113 -18 -95 28 25 62 50 14 96 33 102 43 6 9 28 17 50 17 27 0 35 -8 25 -25z m2623 -241 c39 -282 37 -296 -30 -269 -48 18 -48 20 -10 36 22 9 31 17 20 18 -12 0 -23 95 -26 235 -7 288 4 284 46 -20z m-2273 -156 c29 -47 -13 -96 -82 -97 -44 -1 -44 8 -1 81 41 69 49 71 83 16z m2116 -24 c8 19 19 19 47 1 36 -22 35 -24 -6 -61 -39 -33 -45 -34 -51 -6 -3 18 -12 29 -20 24 -8 -5 -16 10 -18 34 -3 35 1 38 17 14 15 -22 24 -23 31 -6z m-1821 -85 c21 -19 -41 -129 -64 -114 -26 17 -43 -1 -34 -35 6 -22 19 -40 30 -40 10 0 13 -8 7 -19 -6 -10 -3 -24 9 -31 11 -7 20 -32 20 -55 0 -32 -6 -37 -23 -20 -14 14 -38 16 -70 4 -44 -17 -57 -6 -50 45 1 7 -15 19 -36 26 -60 19 -62 60 -7 143 116 173 129 179 218 96z m2535 -22 c75 -76 83 -97 27 -76 -37 15 -144 149 -118 149 9 0 50 -33 91 -73z m-65 -39 c58 -55 21 -157 -43 -118 -16 11 -19 3 -10 -27 14 -45 -6 -99 -39 -101 -11 -1 -21 -19 -22 -40 -5 -92 -23 -106 -83 -68 -65 41 -86 68 -72 90 5 9 -9 16 -32 16 -55 0 -53 54 3 71 24 8 57 27 72 42 15 15 34 23 43 17 18 -10 46 72 30 87 -5 6 -9 -1 -9 -14 0 -12 -9 -23 -20 -23 -11 0 -20 18 -20 40 0 33 10 37 60 27 47 -9 60 -5 60 21 0 45 19 40 82 -20z" fill="#3c3e41"/>
<path d="M3185 3887 c-14 -6 -25 -21 -25 -34 0 -13 -19 -58 -41 -100 -51 -96 -40 -111 31 -44 43 39 50 57 33 77 -17 21 -13 38 18 71 40 42 35 50 -16 30z" fill="#3c3e41"/>
<path d="M4415 2357 c-33 -33 -46 -60 -33 -68 11 -7 23 -10 25 -6 86 127 89 156 8 74z" fill="#3c3e41"/>
<path d="M5180 1540 c-83 -13 -60 -30 30 -22 22 2 56 4 75 4 19 0 35 9 35 19 0 20 -3 20 -140 -1z" fill="#3c3e41"/>
<path d="M4848 856 c7 -35 86 -37 114 -3 27 32 18 34 -49 8 -32 -12 -54 -12 -60 1 -6 10 -8 8 -5 -6z" fill="#3c3e41"/>
<path d="M3441 2072 c-10 -26 -23 -82 -30 -125 l-11 -77 33 70 c30 66 52 180 34 180 -4 0 -16 -22 -26 -48z" fill="#3c3e41"/>
<path d="M2887 1950 c-92 -88 -106 -124 -40 -98 18 7 33 25 33 40 0 15 9 28 21 28 27 0 139 83 139 104 0 41 -67 8 -153 -74z" fill="#3c3e41"/>
<path d="M3660 1921 c0 -21 -13 -91 -30 -154 -37 -144 -38 -259 -2 -460 16 -86 35 -202 44 -257 l15 -100 14 80 c9 47 7 90 -6 105 -14 17 -13 34 3 53 18 22 18 30 -2 37 -21 8 -21 18 -2 51 19 32 19 43 0 51 -18 7 -16 15 5 30 26 18 25 23 -5 34 -38 15 -47 69 -12 69 16 0 15 10 -3 31 -29 35 -45 189 -19 189 9 0 12 18 6 40 -6 22 -1 40 11 40 14 0 17 23 10 60 -7 33 -2 72 10 87 13 15 17 33 9 40 -24 25 -46 13 -46 -26z" fill="#3c3e41"/>
<path d="M2160 1833 c0 -87 22 -119 50 -73 7 11 5 20 -5 20 -9 0 -19 29 -21 64 -8 100 -24 93 -24 -11z" fill="#3c3e41"/>
<path d="M2558 1905 c-2 -8 -2 -22 0 -30 3 -20 -13 -19 -59 6 -24 13 -39 13 -39 1 0 -11 20 -26 45 -33 25 -8 66 -31 93 -52 26 -20 62 -37 80 -36 21 0 13 12 -23 34 -30 19 -55 46 -55 60 0 14 -10 25 -21 25 -12 0 -16 9 -9 20 7 11 7 20 1 20 -6 0 -12 -7 -13 -15z" fill="#3c3e41"/>
<path d="M3443 1863 c-84 -148 -263 -1040 -233 -1160 20 -80 55 -20 131 224 35 112 76 244 92 293 43 133 58 333 27 370 -17 21 -18 30 -2 30 12 0 21 25 20 55 0 30 -6 42 -11 25 -6 -16 -15 -43 -21 -60 -7 -16 -11 -57 -11 -90 2 -78 -27 -218 -67 -325 -33 -89 -74 -117 -59 -40 4 25 9 45 11 45 1 0 6 23 10 50 4 28 17 91 29 140 12 50 27 113 33 140 31 152 53 203 94 220 24 9 33 18 20 19 -13 0 -26 26 -30 56 l-6 55 -27 -47z" fill="#3c3e41"/>
<path d="M2220 1853 c0 -33 76 -104 93 -87 7 7 1 27 -13 44 -14 16 -17 30 -7 30 20 1 -36 39 -58 40 -8 0 -15 -12 -15 -27z" fill="#3c3e41"/>
<path d="M2408 1805 c69 -62 112 -82 112 -50 0 9 -22 32 -50 53 -27 20 -44 45 -39 54 6 10 -13 16 -42 13 l-53 -4 72 -66z" fill="#3c3e41"/>
<path d="M3251 1815 c-33 -18 -288 -75 -339 -75 -10 0 -2 18 17 39 35 39 35 39 -29 21 -81 -23 -99 -39 -48 -43 21 -2 -2 -9 -52 -16 l-90 -14 86 -16 c71 -14 83 -23 73 -54 -6 -20 -3 -37 9 -37 11 0 36 -34 54 -75 19 -41 62 -101 95 -132 48 -45 54 -60 31 -75 -18 -11 -19 -17 -4 -18 41 0 51 41 18 78 -18 19 -32 49 -32 67 0 17 -7 35 -15 38 -17 8 -105 130 -105 146 0 6 29 11 65 11 36 0 78 9 93 18 35 22 75 9 90 -31 7 -19 3 -24 -12 -15 -15 10 -19 4 -11 -16 9 -24 1 -29 -31 -22 -40 8 -40 6 -9 -14 20 -12 31 -30 25 -40 -6 -9 0 -24 13 -32 14 -9 18 -6 9 9 -8 13 -5 23 7 23 11 0 21 13 21 29 0 16 25 52 55 80 44 41 48 51 20 51 -46 0 -44 18 8 74 50 53 44 73 -12 41z" fill="#3c3e41"/>
<path d="M2240 1717 c0 -9 14 -17 32 -17 21 0 28 -11 20 -31 -7 -21 34 -78 125 -170 75 -77 172 -191 215 -254 93 -138 164 -212 218 -231 36 -13 36 -10 -5 24 -25 21 -45 44 -45 52 0 7 -21 41 -48 76 -26 35 -54 84 -61 109 -8 25 -25 45 -38 45 -13 0 -39 25 -57 56 -19 31 -83 103 -143 160 -94 88 -104 104 -67 105 42 2 42 2 4 18 -22 9 -48 11 -58 5 -11 -6 -13 3 -7 21 9 22 -2 34 -36 40 -27 5 -49 2 -49 -8z" fill="#3c3e41"/>
<path d="M2161 1666 c-1 -35 10 -71 24 -80 14 -9 51 -65 83 -126 32 -60 70 -124 84 -141 15 -17 36 -77 49 -133 17 -83 28 -100 58 -92 26 7 39 -5 49 -42 7 -29 21 -52 31 -52 9 0 13 -17 7 -38 -6 -24 7 -49 37 -70 38 -27 41 -37 19 -51 -22 -14 -20 -22 15 -44 24 -15 43 -36 43 -48 0 -11 17 -20 38 -20 32 0 34 6 16 45 -11 25 -27 46 -36 46 -16 0 -43 68 -48 124 -2 18 -25 63 -52 100 -27 36 -60 91 -73 121 -13 30 -34 55 -46 55 -12 0 -16 9 -9 20 7 11 3 20 -9 20 -12 0 -33 25 -46 55 -13 30 -58 111 -99 180 -42 69 -76 133 -76 142 0 8 -13 33 -29 54 -28 37 -30 36 -30 -25z" fill="#3c3e41"/>
<path d="M2500 1690 c0 -16 -16 -30 -35 -30 -24 0 -18 -9 20 -29 31 -16 101 -72 157 -125 128 -122 158 -139 144 -86 -6 23 -55 80 -108 128 -89 80 -100 143 -16 90 55 -34 132 -23 94 14 -20 20 -64 32 -114 32 -45 -1 -82 7 -82 17 0 11 -13 19 -30 19 -16 0 -30 -13 -30 -30z" fill="#3c3e41"/>
<path d="M2177 1420 c-13 -39 4 -120 25 -120 10 0 18 -25 18 -55 0 -30 8 -67 18 -83 27 -42 49 47 23 92 -12 20 -34 72 -48 115 -15 46 -31 68 -36 51z" fill="#3c3e41"/>
<path d="M2064 1263 c-14 -9 -15 -25 -4 -44 16 -25 23 -25 51 3 35 36 -2 68 -47 41z" fill="#3c3e41"/>
<path d="M2280 1075 c0 -26 9 -56 20 -67 11 -11 22 -44 24 -74 3 -30 12 -54 20 -54 9 0 16 -18 16 -39 0 -22 19 -57 42 -79 25 -23 36 -49 27 -64 -9 -14 -7 -19 6 -11 11 7 26 -1 32 -17 7 -17 27 -30 45 -30 31 0 31 4 4 35 -17 19 -43 64 -58 100 -15 36 -35 65 -43 65 -8 0 -15 16 -15 35 0 19 -18 64 -40 100 -22 36 -40 79 -40 94 0 16 -9 34 -20 41 -11 7 -20 -8 -20 -35z" fill="#3c3e41"/>
<path d="M3492 879 c-44 -44 -37 -48 37 -19 28 10 51 28 51 40 0 32 -46 21 -88 -21z" fill="#3c3e41"/>
<path d="M2500 585 c50 -25 60 -36 35 -41 -65 -13 -35 -36 36 -28 62 8 67 12 45 41 -41 52 -62 62 -126 62 l-60 0 70 -34z" fill="#3c3e41"/>
<path d="M2780 518 c-51 -8 -61 -15 -37 -26 29 -13 197 18 197 37 0 9 -70 4 -160 -11z" fill="#3c3e41"/>
<path d="M2512 306 c-7 -8 -52 -13 -98 -12 l-84 3 72 -15 c75 -15 101 -32 205 -133 64 -61 170 -118 188 -101 24 24 -18 76 -53 67 -26 -7 -52 9 -81 49 -24 32 -64 66 -87 76 -37 15 -31 18 36 19 80 2 80 3 30 31 -55 31 -106 38 -128 16z" fill="#3c3e41"/>
<path d="M2041 181 c-64 -127 -101 -165 -101 -107 -1 30 -4 31 -20 6 -38 -58 -22 -80 59 -80 77 0 152 46 131 80 -6 10 -2 22 8 29 10 6 16 -5 13 -24 -6 -43 44 -84 104 -84 33 -1 45 11 46 44 1 25 9 92 17 150 l15 105 -106 0 -106 0 -60 -119z" fill="#3c3e41"/>
<path d="M2945 284 c-105 -15 -13 -41 105 -30 94 8 138 4 162 -16 28 -23 32 -22 25 13 -7 39 -143 54 -292 33z" fill="#3c3e41"/>
<path d="M2914 165 c-15 -79 5 -97 38 -34 35 68 35 89 0 89 -15 0 -32 -25 -38 -55z" fill="#3c3e41"/>
<path d="M1432 131 c-53 -82 12 -130 82 -59 29 28 28 35 -8 71 -40 40 -40 39 -74 -12z" fill="#3c3e41"/>
<path d="M1879 129 c-10 -29 -28 -69 -40 -90 -12 -23 -13 -39 -2 -39 11 0 33 41 50 90 32 95 26 127 -8 39z" fill="#3c3e41"/>
<path d="M3240 153 c0 -47 43 -153 62 -153 25 0 23 24 -12 108 -32 75 -50 91 -50 45z" fill="#3c3e41"/>
<path d="M3497 92 l7 -92 158 0 159 0 -53 80 c-34 51 -69 80 -96 80 -23 0 -74 6 -112 12 l-71 12 8 -92z" fill="#3c3e41"/>
<path d="M2485 56 c11 -33 70 -67 88 -50 8 8 -3 28 -24 44 -47 35 -75 38 -64 6z" fill="#3c3e41"/>
</g>
</svg>